<?xml version="1.0" standalone="no"?>
<!DOCTYPE svg PUBLIC "-//W3C//DTD SVG 1.1//EN" "http://www.w3.org/Graphics/SVG/1.1/DTD/svg11.dtd">
<svg xmlns="http://www.w3.org/2000/svg" xmlns:xlink="http://www.w3.org/1999/xlink" version="1.1" id="Camada_1" x="0px" y="0px" viewBox="0 0 1000 1000" style="enable-background:new 0 0 1000 1000;" xml:space="preserve" width="1000" height="1000">
<style type="text/css">
	.st0{fill:#E8611B;}
</style>
<g>
	<path class="st0" d="M204.5,165.4c-1.7-0.1-3.1-0.8-4.3-2.1c-1.2-1.3-1.7-2.9-1.6-4.6c0.1-1.7,0.8-3.2,2.2-4.4   c1.3-1.2,2.9-1.7,4.6-1.7c1.7,0.1,3.2,0.8,4.4,2.1c1.2,1.3,1.7,2.9,1.6,4.6c-0.1,1.7-0.8,3.2-2.2,4.4   C207.8,164.9,206.2,165.5,204.5,165.4 M249.9,240.6L244,234c1.9-0.6,3.8-1.7,5.6-3.3c2.4-2.1,3.6-4.2,3.6-6.3   c0-2.1-1.1-4.4-3.4-6.9l-38.1-42.8l8.1-7.2l38.6,43.3c3.9,4.4,5.6,8.8,5.2,13.2c-0.5,4.4-2.8,8.4-6.9,12.1   C254.4,238.2,252.1,239.7,249.9,240.6"/>
	<path class="st0" d="M264.8,189c-7.1-0.8-13.1-4.7-18.1-11.7c-4.8-6.8-6.7-13.7-5.6-20.4c1.1-6.8,5.3-12.7,12.5-17.8   c4.8-3.4,9.6-5.4,14.2-5.9c4.7-0.5,9,0.2,13,2.2c4,2,7.4,5.1,10.3,9.2l3.1,4.4l-36.8,25.9c3.1,3.7,6.8,5.5,11.2,5.3   c4.4-0.2,9.2-2.1,14.5-5.8c2.7-1.9,5.2-4,7.6-6.4c2.4-2.4,4.3-4.8,5.8-7l5,7.1c-1.3,2.1-3.3,4.4-6,7c-2.7,2.6-5.5,5-8.5,7.1   C279.3,187.4,271.9,189.8,264.8,189 M281.6,148.6c-2.9-3.9-6.3-6-10.3-6.5c-4-0.4-8.3,0.9-12.8,4.1c-4.4,3.1-7,6.7-7.9,10.6   c-0.8,4,0,7.9,2.5,11.8L281.6,148.6z"/>
	<path class="st0" d="M291.4,116.9l9.3-4.8l4.2,8.1c0.5-3.8,2.1-7.2,4.8-10.3c2.8-3.1,6.4-5.8,10.9-8.2l3.9,7.5   c-4.9,2.5-8.6,5.5-11.3,8.8c-2.6,3.4-3.8,7.1-3.3,11.2l14.6,28.1l-9.6,4.9L291.4,116.9z"/>
	<path class="st0" d="M329.3,85.4c-1.6-0.7-2.7-1.8-3.4-3.4c-0.7-1.6-0.7-3.2,0-4.8c0.7-1.6,1.8-2.7,3.4-3.4c1.7-0.7,3.4-0.7,5-0.1   c1.6,0.6,2.8,1.8,3.4,3.4c0.7,1.6,0.7,3.3,0,4.8c-0.7,1.6-1.9,2.7-3.6,3.4C332.5,86,330.9,86,329.3,85.4 M332.9,96.7l10.1-4.2   l19.5,47.3l-10.1,4.2L332.9,96.7z"/>
	<path class="st0" d="M361.1,83.9l9.9-2.4l1.7,7.1c1.6-3.5,3.8-6.3,6.4-8.5c2.6-2.2,5.5-3.6,8.7-4.4c4-1,7.3-1.1,10-0.3   c2.7,0.8,4.9,2.4,6.7,4.9c1.6-3.2,3.8-5.9,6.6-8.1c2.9-2.2,5.9-3.6,9.2-4.4c6.1-1.5,10.8-1,14.3,1.4c3.4,2.4,5.9,6.6,7.4,12.6   l8.1,33l-10.1,2.5l-7.7-31.7c-1-4.1-2.5-6.8-4.4-8.1c-1.9-1.3-4.7-1.5-8.4-0.6c-5.2,1.3-9,4.6-11.2,10c0.4,1,0.9,2.7,1.4,5   l7.6,30.9l-10.1,2.5l-7.7-31.7c-1-4.1-2.4-6.8-4.2-8.1c-1.8-1.4-4.5-1.6-8.1-0.7c-5.2,1.3-9.2,5.4-11.9,12.3l8.3,33.9l-10.2,2.5   L361.1,83.9z"/>
	<path class="st0" d="M464.6,110.8c-3.7-3.5-5.6-8.4-5.9-14.6l-1.4-32.3l10.7-0.5l1.4,31.9c0.3,8.2,4.6,12.1,12.8,11.7   c7.2-0.3,12.6-3.8,16.4-10.4l-1.5-34.5l10.7-0.5l2.2,51.1l-10.4,0.4l-0.3-7.2c-2.3,3.2-5,5.5-8.3,7.1c-3.2,1.6-6.8,2.4-10.6,2.6   C473.5,116,468.3,114.3,464.6,110.8"/>
	<path class="st0" d="M528.3,61.4l10.1,1.6l-1.1,7.3c2.8-2.6,5.9-4.4,9.1-5.4c3.2-1,6.5-1.3,9.7-0.8c4.1,0.6,7.2,1.8,9.4,3.5   c2.2,1.7,3.6,4.1,4.3,7.1c2.7-2.4,5.7-4,9.2-4.9c3.5-0.9,6.9-1.1,10.2-0.6c6.2,0.9,10.4,3.2,12.6,6.7c2.3,3.5,2.9,8.4,2,14.5   l-5.2,33.6l-10.3-1.6l5-32.2c0.6-4.1,0.3-7.2-1-9.1c-1.3-2-3.8-3.2-7.5-3.8c-5.3-0.8-10,0.8-14.1,4.9c0,1.1-0.2,2.8-0.6,5.2   l-4.8,31.5l-10.3-1.6l5-32.2c0.6-4.1,0.4-7.2-0.8-9.1c-1.1-1.9-3.5-3.2-7.2-3.7c-5.3-0.8-10.6,1.5-15.7,6.8l-5.3,34.5l-10.4-1.6   L528.3,61.4z"/>
	<polygon class="st0" points="669.4,96.2 674.5,98.6 662.9,141.7 705.9,113.5 711.4,116.1 661.1,148.8 656.1,146.5  "/>
	<path class="st0" d="M696.8,166.3c-1.8-3.2-2.6-6.6-2.4-10.2c0.2-3.6,1.5-7.1,3.8-10.6c1.2-1.8,2.7-3.5,4.3-5.1   c4.1-3.9,8.6-6.7,13.5-8.4c4.9-1.7,9.8-2.2,14.8-1.5c5,0.7,9.6,2.5,13.9,5.4c4.2,2.8,7.2,6.1,9.1,9.8c1.9,3.7,2.3,7.7,1.5,11.8   l7.7-7.4l4.7,3.2L730,189.7l-4.6-3.1l7.6-7.5c-5,1.5-9.8,1.9-14.4,1.2c-4.6-0.7-9.3-2.6-13.9-5.8   C701.2,172.3,698.6,169.5,696.8,166.3 M723.5,176.9c5.4,0.3,10.5-0.9,15.3-3.5l10.3-9.9c2.4-4.5,3-8.7,1.9-12.8   c-1.2-4.1-4.1-7.7-8.9-10.9c-3.4-2.3-7.1-3.7-11.3-4.2c-4.2-0.6-8.4-0.2-12.5,1.2c-4.2,1.4-7.9,3.6-11.1,6.8   c-1.5,1.5-2.9,3.1-3.9,4.7c-2.9,4.3-3.8,8.5-2.8,12.7c1,4.2,3.8,7.8,8.5,11C713.2,174.9,718.1,176.6,723.5,176.9"/>
	<polygon class="st0" points="804.1,149.4 808.3,153 744.5,202.1 740.3,198.5  "/>
	<polygon class="st0" points="822.2,166.3 826.2,170.1 759.8,215.7 755.8,211.9  "/>
	<path class="st0" d="M779,228.9c-0.1-5.4,2.3-10.1,7.1-14.2c1.6-1.4,3.6-2.7,6.1-4c7.5-4.1,15-5.5,22.4-4.4   c7.4,1.1,13.8,4.9,19.3,11.4c4.6,5.4,6.8,10.6,6.6,15.7c-0.2,5-2.5,9.4-7,13.2c-1.8,1.5-3.7,2.8-5.7,3.8l-3.2,1.7l-30.9-36.5   c-1.9,1.1-3.3,2.1-4.4,3c-7.7,6.6-7.2,15,1.6,25.4c2.2,2.5,4.5,4.9,7.1,7.1c2.6,2.2,5.2,4,7.7,5.3l-4.3,2.3c-2.1-1.2-4.6-3-7.4-5.4   c-2.8-2.5-5.3-4.9-7.4-7.4C781.6,240,779,234.3,779,228.9 M825.1,246.2c1.9-1.1,3.6-2.2,5.1-3.5c7.3-6.2,7.2-13.8-0.5-22.8   c-2.9-3.4-6.2-5.9-9.9-7.5c-3.7-1.6-7.5-2.2-11.4-2c-3.9,0.3-7.6,1.3-11,3.1L825.1,246.2z"/>
	<path class="st0" d="M792.8,288.7c-1.1-2.9-1.8-5.6-2-7.9l4.6-1.6c0.3,5.2,2.3,10.8,5.9,16.7c3.7,6.1,8.1,10,13,11.6   c4.9,1.6,10.8,1.2,17.7-1.1l8.9-2.9c-9-1.8-15.8-6.4-20.3-13.8c-3-4.9-4.1-9.3-3.4-13.1c0.7-3.8,3-6.9,6.8-9.2   c1.4-0.9,3-1.6,4.9-2.2l30.4-10.7l2.9,4.7l-30.5,10.7c-1.8,0.7-3.2,1.4-4.3,2c-6,3.7-6.7,9.2-2.2,16.6c2.2,3.6,5,6.4,8.4,8.5   c3.4,2.1,7.8,3.5,13,4.3l34-11.9l2.9,4.8l-47.8,16.8c-8.4,2.9-15.7,3.4-22.1,1.3c-6.4-2.1-11.9-7-16.7-14.8   C795.3,294.5,793.9,291.6,792.8,288.7"/>
	<path class="st0" d="M880.9,355.1c0.7-1.5,1.9-2.6,3.7-3.2c2.6-0.9,5.1-0.7,7.8,0.6c2.6,1.3,4.4,3.2,5.2,5.6   c0.6,1.9,0.6,3.6-0.2,5.2c-0.8,1.6-2.1,2.7-3.9,3.3c-2.5,0.9-5,0.6-7.6-0.7c-2.6-1.3-4.3-3.2-5.1-5.7   C880.2,358.3,880.2,356.6,880.9,355.1"/>
	<path class="st0" d="M848.3,415.1l8.7-1.4c-0.6,2-0.6,4.1-0.3,6.5c0.5,3.2,1.6,5.3,3.3,6.4c1.7,1.1,4.3,1.4,7.6,0.9l56.6-9   l1.7,10.7l-57.3,9.1c-5.8,0.9-10.4,0-13.9-2.8c-3.4-2.8-5.6-6.9-6.4-12.4C847.9,420.1,847.9,417.4,848.3,415.1 M936.2,417.5   c1-1.4,2.4-2.2,4.1-2.5c1.8-0.3,3.3,0.1,4.7,1.1c1.4,1,2.2,2.4,2.5,4.2c0.3,1.8-0.1,3.3-1.1,4.8c-1,1.4-2.4,2.3-4.1,2.5   c-1.8,0.3-3.3-0.1-4.7-1.1c-1.4-1-2.2-2.4-2.5-4.2C934.8,420.5,935.2,418.9,936.2,417.5"/>
	<path class="st0" d="M883.7,455.5c4.5-5.6,11-8.5,19.6-8.9c8.4-0.4,15.1,1.8,20.2,6.3c5.1,4.6,7.8,11.3,8.2,20.2   c0.3,5.9-0.7,10.9-2.7,15.1c-2.1,4.2-5,7.4-8.9,9.7c-3.9,2.3-8.3,3.5-13.3,3.7l-5.3,0.2l-1.9-44.9c-4.8,0.6-8.3,2.8-10.5,6.6   c-2.2,3.8-3.2,8.9-2.9,15.3c0.1,3.3,0.6,6.5,1.3,9.9c0.7,3.3,1.7,6.2,2.8,8.7l-8.6,0.4c-1-2.2-1.9-5.2-2.7-8.9   c-0.8-3.7-1.2-7.4-1.4-11C877.2,468.6,879.2,461.1,883.7,455.5 M908.6,491.5c4.8-0.3,8.5-2.1,11-5.2c2.5-3.1,3.7-7.5,3.5-13   c-0.2-5.4-1.8-9.5-4.7-12.4c-2.9-2.9-6.7-4.3-11.3-4.2L908.6,491.5z"/>
	<path class="st0" d="M930,516.8l-0.9,10.4l-9.1-0.8c2.9,2.4,4.9,5.6,6.1,9.6c1.1,4,1.5,8.5,1,13.6l-8.4-0.8   c0.5-5.4,0-10.2-1.4-14.2c-1.4-4.1-4-7-7.6-8.8l-31.5-2.9l1-10.7L930,516.8z"/>
	<path class="st0" d="M924.7,562.7l-1.9,10.8l-50.3-9.1l1.9-10.8L924.7,562.7z M936.2,565.7c1.4-1,3-1.3,4.7-1   c1.7,0.3,3.1,1.2,4.1,2.6c1,1.4,1.3,3,1,4.7c-0.3,1.8-1.2,3.2-2.6,4.2c-1.4,1-3,1.4-4.7,1c-1.7-0.3-3.1-1.2-4.1-2.6   c-1-1.4-1.3-3.1-1-4.9C933.9,568,934.8,566.7,936.2,565.7"/>
	<path class="st0" d="M920.2,593.3l-3.3,9.7l-7-2.4c2,3.2,3.3,6.6,3.7,9.9c0.4,3.4,0.1,6.6-0.9,9.7c-1.3,3.9-3,6.8-5.1,8.6   c-2.1,1.8-4.7,2.8-7.7,3c1.9,3,3,6.4,3.2,9.9c0.3,3.6-0.1,7-1.2,10.1c-2,5.9-5,9.7-8.9,11.3c-3.9,1.6-8.7,1.4-14.6-0.6l-32.2-11   l3.4-9.9l30.8,10.5c4,1.4,7,1.6,9.2,0.7c2.1-0.9,3.8-3.2,5-6.7c1.7-5.1,1-10-2.4-14.8c-1.1-0.2-2.7-0.7-5-1.5l-30.1-10.3l3.4-9.9   l30.8,10.5c4,1.4,7,1.6,9.1,0.9c2.1-0.8,3.8-2.9,4.9-6.4c1.7-5.1,0.4-10.7-4-16.7l-33.1-11.3l3.4-10L920.2,593.3z"/>
	<path class="st0" d="M841.9,666c5-1.2,10.1-0.2,15.4,2.9l28,16.3l-5.4,9.3l-27.6-16.1c-7.1-4.1-12.6-2.6-16.7,4.4   c-3.6,6.2-3.6,12.7-0.1,19.4l29.8,17.4l-5.4,9.3l-44.2-25.7l5.2-9l6.3,3.6c-1.4-3.6-1.9-7.2-1.5-10.8c0.4-3.6,1.6-7,3.5-10.3   C832.7,670.7,836.9,667.2,841.9,666"/>
	<path class="st0" d="M849,746.3l-6.8,7.7l-5.5-4.9c0.6,3.8,0.5,7.3-0.4,10.6c-0.9,3.3-2.4,6.1-4.6,8.6c-2.7,3.1-5.4,5.1-8,6   c-2.6,0.9-5.4,0.8-8.3-0.2c0.6,3.5,0.3,7-0.8,10.4c-1.1,3.4-2.8,6.4-5,8.9c-4.1,4.7-8.3,7-12.5,7c-4.2,0-8.6-2.1-13.2-6.2   l-25.5-22.5l6.9-7.8l24.4,21.6c3.1,2.8,5.9,4.1,8.2,4.1c2.3,0,4.8-1.4,7.2-4.3c3.6-4,4.7-8.9,3.5-14.5c-0.9-0.6-2.2-1.7-4.1-3.3   l-23.9-21.1l6.9-7.8l24.4,21.6c3.1,2.8,5.8,4.2,8.1,4.3c2.2,0.1,4.6-1.3,7-4c3.6-4,4.5-9.7,2.7-16.9l-26.2-23.1l7-7.9L849,746.3z"/>
	<polygon class="st0" points="743.7,846.3 738.9,849.3 708.9,816.3 709.5,867.7 704.3,870.9 703.8,810.9 708.4,808  "/>
	<path class="st0" d="M669.8,831.6c3.6,0.2,6.9,1.3,9.9,3.4c2.9,2.1,5.2,5.1,6.9,8.9c0.9,2,1.5,4.1,2,6.4c1.1,5.6,1,10.8-0.2,15.9   c-1.2,5-3.5,9.4-6.7,13.3c-3.3,3.8-7.3,6.8-12,8.8c-4.6,2-9,2.8-13.1,2.4c-4.1-0.4-7.7-2.1-10.7-5.1l2.1,10.5l-5.2,2.3L632.3,847   l5.1-2.2l2.2,10.4c1.4-5,3.6-9.3,6.7-12.8c3.1-3.5,7.2-6.4,12.3-8.6C662.5,832.2,666.2,831.4,669.8,831.6 M646.6,848.4   c-3.1,4.4-4.9,9.3-5.3,14.7l2.8,14c2.5,4.4,5.7,7.2,9.8,8.5c4.1,1.2,8.7,0.7,14-1.6c3.7-1.6,6.9-4,9.7-7.3c2.7-3.2,4.6-7,5.7-11.2   c1.1-4.2,1.2-8.6,0.2-13.1c-0.5-2.1-1.1-4.1-1.8-5.8c-2.1-4.8-5.1-7.8-9.2-9.2c-4.1-1.4-8.7-1-13.8,1.2   C653.8,840.8,649.8,844.1,646.6,848.4"/>
	<polygon class="st0" points="626.3,931.1 621,932.7 614.1,852.6 619.4,850.9  "/>
	<polygon class="st0" points="602.3,937.2 596.9,938.6 594.4,858.1 599.7,856.8  "/>
	<path class="st0" d="M572.9,867.1c4.6,2.9,7.3,7.4,8.1,13.7c0.3,2.1,0.3,4.5,0.1,7.3c-0.7,8.5-3.5,15.6-8.4,21.2   c-4.9,5.6-11.6,9-20,10.1c-7,0.9-12.6,0-16.7-2.9c-4.1-2.9-6.5-7.2-7.3-13c-0.3-2.3-0.4-4.6-0.2-6.9l0.3-3.6l47.4-6.3   c0.1-2.2,0-3.9-0.2-5.4c-1.3-10.1-8.8-14.2-22.3-12.4c-3.3,0.4-6.6,1.2-9.8,2.2c-3.2,1-6.1,2.2-8.7,3.6l0.4-4.9   c2.1-1.1,5-2.2,8.6-3.3c3.6-1,7-1.8,10.2-2.2C562.2,863.3,568.3,864.2,572.9,867.1 M533.5,896.6c-0.1,2.2-0.1,4.2,0.2,6.2   c1.3,9.5,7.7,13.5,19.4,11.9c4.4-0.6,8.3-2,11.6-4.3c3.3-2.3,5.9-5.1,7.8-8.5c1.9-3.4,3-7.1,3.3-11L533.5,896.6z"/>
	<path class="st0" d="M515.1,846.5c3.1,0.7,5.7,1.5,7.8,2.6l-1.2,4.8c-4.6-2.5-10.3-3.9-17.3-4c-7.2-0.2-12.7,1.4-16.7,4.7   c-4,3.3-6.9,8.5-8.7,15.5l-2.3,9.1c6.4-6.6,13.9-9.8,22.6-9.6c5.8,0.1,10,1.5,12.9,4.2c2.8,2.7,4.2,6.2,4.1,10.7   c0,1.6-0.3,3.4-0.8,5.3l-7.4,31.4l-5.5-0.1l7.4-31.5c0.4-1.9,0.6-3.5,0.6-4.7c0.2-7-4.1-10.6-12.8-10.8c-4.2-0.1-8.1,0.7-11.7,2.5   c-3.6,1.8-7.1,4.6-10.6,8.6l-8.3,35.1l-5.6-0.1l11.6-49.3c2-8.6,5.6-15.1,10.8-19.3c5.2-4.3,12.3-6.3,21.5-6.1   C508.9,845.4,512.1,845.8,515.1,846.5"/>
	<path class="st0" d="M411.6,884.9c0.9,1.4,1.1,3,0.7,4.8c-0.6,2.6-2.2,4.7-4.7,6.2c-2.5,1.5-5,2-7.6,1.4c-1.9-0.5-3.4-1.4-4.3-2.9   c-0.9-1.5-1.2-3.2-0.7-5c0.6-2.6,2.2-4.6,4.7-6c2.5-1.4,5-1.9,7.6-1.2C409.3,882.5,410.7,883.4,411.6,884.9"/>
	<path class="st0" d="M372.7,913.6c0.8,1.5,0.9,3.1,0.4,4.8c-0.5,1.7-1.6,2.9-3.1,3.7c-1.5,0.8-3.2,0.9-4.9,0.4   c-1.7-0.5-2.9-1.6-3.8-3.1c-0.8-1.5-1-3.1-0.4-4.8c0.5-1.7,1.6-2.9,3.1-3.7c1.5-0.8,3.2-0.9,4.9-0.4   C370.7,911,371.9,912,372.7,913.6 M414.2,836.1l-2.7,8.4c-1.5-1.4-3.4-2.4-5.7-3.1c-3-1-5.5-0.9-7.2,0.1c-1.8,1-3.2,3.2-4.2,6.4   l-17.3,54.6l-10.4-3.3l17.5-55.3c1.8-5.6,4.7-9.3,8.7-11.2c4-1.8,8.6-1.9,13.9-0.2C409.8,833.5,412.3,834.7,414.2,836.1"/>
	<path class="st0" d="M362.2,849.7c3,6.5,2.7,13.7-0.8,21.5c-3.4,7.6-8.3,12.7-14.7,15.2c-6.4,2.5-13.6,1.9-21.7-1.7   c-5.4-2.4-9.5-5.5-12.3-9.2c-2.8-3.7-4.4-7.8-4.7-12.3c-0.3-4.5,0.6-9,2.7-13.6l2.2-4.9l41,18.4c1.7-4.6,1.3-8.7-1.2-12.4   c-2.4-3.7-6.6-6.9-12.4-9.5c-3-1.3-6.1-2.4-9.4-3.2c-3.3-0.8-6.3-1.3-9-1.4l3.5-7.9c2.5,0.1,5.5,0.6,9.1,1.6   c3.6,1,7.1,2.2,10.4,3.7C353.5,838,359.2,843.2,362.2,849.7 M318.9,855.8c-1.8,4.5-1.9,8.5-0.3,12.2c1.7,3.7,5,6.6,10.1,8.9   c4.9,2.2,9.3,2.7,13.2,1.4c3.9-1.3,6.8-4,8.8-8.2L318.9,855.8z"/>
	<path class="st0" d="M286.6,863.6l-8.9-5.5l4.8-7.8c-3.5,1.5-7.2,1.9-11.3,1.1c-4.1-0.8-8.3-2.5-12.6-5.2l4.5-7.1   c4.6,2.9,9.1,4.6,13.3,5.2c4.3,0.6,8-0.4,11.3-2.9l16.7-26.8l9.1,5.7L286.6,863.6z"/>
	<path class="st0" d="M240.2,847c0.2,1.7-0.2,3.2-1.2,4.7c-1.1,1.4-2.4,2.2-4.1,2.5c-1.7,0.2-3.2-0.2-4.7-1.2   c-1.5-1.1-2.3-2.5-2.6-4.2c-0.3-1.7,0.1-3.3,1.2-4.7c1.1-1.4,2.5-2.2,4.2-2.5c1.7-0.2,3.3,0.2,4.8,1.3   C239.1,844,240,845.3,240.2,847 M248.1,838.2l-8.8-6.6l30.7-40.9l8.8,6.6L248.1,838.2z"/>
	<path class="st0" d="M222.8,820.4l-7.2-7.3l5.2-5.2c-3.8,0.4-7.3,0-10.5-1.1c-3.2-1.1-6-2.9-8.2-5.2c-2.9-2.9-4.7-5.8-5.4-8.4   s-0.4-5.4,0.8-8.2c-3.6,0.3-7-0.2-10.3-1.6c-3.3-1.4-6.2-3.2-8.5-5.6c-4.4-4.5-6.4-8.8-6.1-13c0.3-4.2,2.7-8.4,7.1-12.8l24.2-23.8   l7.3,7.4l-23.2,22.8c-3,2.9-4.6,5.6-4.7,7.9c-0.1,2.3,1.1,4.8,3.7,7.5c3.8,3.8,8.5,5.3,14.3,4.5c0.7-0.8,1.8-2.1,3.6-3.8l22.7-22.3   l7.3,7.4l-23.2,22.8c-3,2.9-4.6,5.5-4.8,7.8c-0.2,2.2,0.9,4.7,3.5,7.3c3.8,3.8,9.3,5.1,16.7,3.9l24.9-24.5l7.4,7.5L222.8,820.4z"/>
	<path class="st0" d="M192.8,717.8c-1.2,5-4.3,9.1-9.5,12.5l-27.1,17.8l-5.9-9l26.7-17.5c6.8-4.5,8-10.1,3.5-17   c-3.9-6-9.7-8.9-17.3-8.8l-28.8,18.9l-5.9-9l42.7-28l5.7,8.7l-6.1,4c3.9,0.3,7.3,1.5,10.3,3.5c3,2,5.5,4.6,7.7,7.8   C192.7,707.5,194,712.9,192.8,717.8"/>
	<path class="st0" d="M117.8,688.3l-3.8-9.5l6.8-2.7c-3.7-1.1-6.8-2.8-9.3-5.1c-2.5-2.3-4.4-4.9-5.6-8c-1.5-3.8-2.1-7.1-1.7-9.9   c0.4-2.8,1.7-5.2,3.9-7.3c-3.4-1.1-6.4-2.9-9-5.4c-2.6-2.5-4.5-5.3-5.7-8.4c-2.3-5.8-2.6-10.6-0.7-14.3c1.9-3.8,5.7-6.8,11.4-9.1   l31.5-12.7l3.9,9.7l-30.2,12.2c-3.9,1.6-6.3,3.4-7.4,5.5c-1,2.1-0.8,4.9,0.6,8.4c2,5,5.8,8.2,11.5,9.6c0.9-0.5,2.5-1.2,4.8-2.1   l29.5-11.9l3.9,9.7l-30.2,12.2c-3.9,1.6-6.4,3.3-7.5,5.3c-1.1,2-0.9,4.7,0.4,8.1c2,5,6.7,8.3,13.9,10l32.4-13.1l3.9,9.8   L117.8,688.3z"/>
	<polygon class="st0" points="75.6,549.2 75.1,543.6 118,531.6 71.9,509.1 71.3,503 125.1,529.6 125.6,535  "/>
	<path class="st0" d="M121.9,489.9c-1.8,3.2-4.3,5.6-7.5,7.3c-3.2,1.7-6.9,2.4-11,2.2c-2.2-0.1-4.4-0.5-6.6-1.1   c-5.5-1.5-10.2-3.9-14.1-7.3c-3.9-3.3-6.9-7.3-8.8-11.9c-2-4.6-2.8-9.5-2.5-14.7c0.3-5,1.5-9.3,3.8-12.8c2.3-3.5,5.4-5.9,9.4-7.3   l-10.3-2.8l0.3-5.6l50.5,13.6l-0.3,5.5l-10.3-2.7c3.9,3.5,6.7,7.4,8.4,11.7c1.8,4.3,2.5,9.3,2.2,14.9   C124.8,483,123.7,486.7,121.9,489.9 M117.3,461.6c-2.5-4.8-6.1-8.5-10.8-11.4l-13.8-3.7c-5.1,0.2-9,1.9-11.9,5   c-2.9,3.1-4.5,7.5-4.8,13.2c-0.2,4,0.5,8,2.2,11.9c1.7,3.9,4.2,7.3,7.5,10.2c3.3,2.9,7.1,4.9,11.6,6.1c2.1,0.5,4.1,0.9,6,1   c5.2,0.3,9.3-1.1,12.4-4.1c3.1-3,4.8-7.3,5.1-12.9C120.9,471.4,119.8,466.3,117.3,461.6"/>
	<polygon class="st0" points="52.4,406.5 53.3,401 128.1,430.6 127.2,436.1  "/>
	<polygon class="st0" points="57.7,382.2 58.9,376.8 132,410.5 130.8,415.9  "/>
	<path class="st0" d="M133.5,387.3c-4.6,2.8-9.9,3.2-15.9,1.1c-2-0.7-4.2-1.7-6.6-3.2c-7.3-4.4-12.4-10.1-15.2-17   c-2.8-6.9-2.8-14.4-0.1-22.4c2.3-6.7,5.7-11.3,10.1-13.6c4.4-2.4,9.4-2.6,14.9-0.7c2.2,0.8,4.3,1.7,6.2,2.9l3.1,1.9l-15.6,45.2   c1.9,1,3.5,1.8,4.9,2.2c9.6,3.3,16.6-1.5,21.1-14.4c1.1-3.2,1.9-6.4,2.5-9.7c0.5-3.3,0.8-6.5,0.6-9.4l4.2,2.6   c0.1,2.4-0.2,5.5-0.9,9.2c-0.7,3.7-1.5,7.1-2.6,10.1C141.7,379.4,138.1,384.5,133.5,387.3 M124.8,338.8c-1.9-1.1-3.8-2-5.6-2.6   c-9.1-3.1-15.5,0.9-19.4,12c-1.5,4.2-1.9,8.3-1.4,12.3c0.5,4,1.9,7.6,4.1,10.8c2.2,3.2,5,5.8,8.3,7.9L124.8,338.8z"/>
	<path class="st0" d="M177.8,344.9c-2,2.4-3.9,4.4-5.8,5.8l-3.7-3.2c4.3-2.9,8.1-7.5,11.3-13.6c3.4-6.3,4.5-12,3.3-17   c-1.1-5-4.5-9.9-10-14.7l-7.1-6.2c3,8.7,2.5,16.8-1.6,24.5c-2.7,5.1-5.9,8.3-9.5,9.6c-3.6,1.3-7.4,0.9-11.4-1.2   c-1.4-0.8-2.9-1.8-4.4-3.1l-24.7-20.7l2.6-4.9l24.8,20.8c1.5,1.2,2.8,2.1,3.9,2.7c6.2,3.3,11.3,1.1,15.4-6.5c2-3.7,3-7.6,3-11.6   c0.1-4-0.9-8.5-2.9-13.3L133.5,269l2.6-5l38.8,32.5c6.8,5.7,10.9,11.8,12.4,18.3c1.5,6.5,0.1,13.8-4.2,21.9   C181.5,339.7,179.8,342.4,177.8,344.9"/>
	<path class="st0" d="M190,235.2c-1.7,0.2-3.2-0.3-4.6-1.5c-2.1-1.7-3.2-4.1-3.5-7c-0.2-2.9,0.5-5.4,2.2-7.4   c1.3-1.5,2.8-2.3,4.6-2.5c1.7-0.1,3.4,0.4,4.8,1.6c2,1.7,3.1,4,3.3,6.9c0.2,2.9-0.6,5.3-2.3,7.3C193.2,234.2,191.7,235,190,235.2"/>
	<path class="st0" d="M425.2,550.9c1.1-35.6,4.1-67.3,15.2-97.6c3.6-9.9,8.6-19.2,14.8-27.8c8.2-11.3,19-18.2,32.8-20.2   c12.3-1.8,24.4-1.3,36.3,2.3c10.4,3.1,17.6,10.3,23.8,18.6c11.1,14.9,17,32,21.1,49.9c5.6,24.3,8.5,49,8.1,73.9   c-0.6,37.1-6.5,73.3-22.7,107.2c-4.8,10-10.7,19.2-18.6,27.1c-5.4,5.4-11.6,9.2-19.2,9.4c-11,0.3-22,0-32.9-0.5   c-6.8-0.3-12-4.1-16.7-8.7c-10-9.8-16.7-21.8-22.1-34.5c-9.2-21.6-14.7-44.3-17.2-67.6C426.5,570.8,425.8,559.1,425.2,550.9"/>
	<path class="st0" d="M686.3,551.4c-0.3,26-4.7,51.2-14.4,75.3c-13.8,34.2-39.4,54.8-75.1,62.6c-9.8,2.2-20,2.7-30.1,3.9   c-0.7,0.1-1.5,0-2.2,0c-6.9-0.5-8.9-2.9-6.5-9.3c2.7-7.4,5.9-14.7,9.5-21.7c9.3-18.3,17.8-36.9,21.8-57.3   c4.8-24.7,6.7-49.4,5.3-74.6c-1.4-23.9-4.9-47.4-12.7-70.1c-5.6-16.3-13-31.6-25.4-44c-3.8-3.8-3.2-6.1,2-8.2   c8.5-3.5,17.4-3.2,26.3-2.5c14.3,1.1,26,7.6,36.8,16.7c25,20.8,45.1,45.1,56.2,76.2C683.7,515.5,686.5,533.2,686.3,551.4"/>
	<path class="st0" d="M316.3,545.3c2.1-55.3,29.5-96.4,72.4-128.7c15.8-11.9,33.8-13.4,52.6-9.9c0.1,0,0.2,0.1,0.4,0.1   c8.6,2.6,9.2,5,3,11.5c-12.4,12.8-19.3,28.6-24.7,45.2c-6.7,20.7-10,42-11.4,63.7c-1.9,30,0.2,59.6,7.7,88.7   c3.8,14.9,10.5,28.7,17.3,42.5c4.3,8.9,8.2,18,11.8,27.2c1.7,4.4,0.5,6.5-4.2,7c-6,0.6-12.1,0.6-18.1-0.1   c-17.7-2.1-34.7-6.7-50.2-15.9c-23.8-14.2-38.1-35.5-46.2-61.5c-6.3-20.3-9.7-41.1-10.3-62.4C316.3,550.2,316.3,547.8,316.3,545.3"/>
	<path class="st0" d="M346.2,674.6c-2.7,0.2-5.4,0.8-8,0.4c-15.2-2.2-27.6-9.7-38.5-20.1c-21.1-20.2-34.2-45-40.4-73.4   c-9.1-41.4-3.4-80.6,19.9-116.3c16.6-25.4,38.8-44.6,67.6-55.1c8-2.9,16.8-3.5,25.3-4.9c2.1-0.3,4.5,0.3,6.6,0.9   c2.6,0.8,2.9,2.5,0.8,4.3c-1.9,1.6-4,2.9-6,4.3c-36,25.5-60.7,58.9-70.8,102.3c-4,17.3-4.4,34.8-2.7,52.4   c2.2,22.4,7.8,44,16.3,64.8c6.1,14.8,14.6,27.9,28.2,36.9c0.7,0.5,1.4,0.9,2.2,1.4C346.6,673.3,346.4,673.9,346.2,674.6"/>
	<path class="st0" d="M747.4,546.8c-0.9,41.1-13.7,77.3-43.1,106.9c-9.9,9.9-21.3,17.3-35.1,20.5c-3.4,0.8-7.1,0.8-10.6,0.6   c-2.1-0.1-3-1.7-0.9-3.2c19.6-13,28.2-33.2,35-54.4c7.3-22.8,11.6-46,10.9-70c-1-37.3-14-70-37.6-98.6   c-11.3-13.6-24-25.6-38.9-35.3c-2-1.3-3.4-3.5-5.1-5.3c2.6-0.9,5.1-2.6,7.7-2.6c10.6-0.2,21,1.9,30.6,6.3   c38.8,17.5,65.4,46.4,79.4,86.7C745.1,513.9,747.6,530.1,747.4,546.8"/>
	<path class="st0" d="M515.2,372.7c0,8.1-6.5,14.7-14.4,14.7c-8,0-14.4-6.6-14.4-14.7c0-8.1,6.5-14.7,14.4-14.7   C508.7,358,515.2,364.6,515.2,372.7"/>
	<path class="st0" d="M486.5,340.4v-18.6c3.6,0,8.4,0.3,13.9,1.4c3.6,0.8,10.7,2.6,18.7,7.3c3.1,1.8,8.5,5.3,14.1,11   c6.3,6.5,10.1,13,12.3,17.7c1.4,3,2.8,6.5,3.9,10.7c1.8,6.6,2.2,12.5,2.2,17H533c0-3.2-0.3-7.6-1.7-12.5c-0.8-2.8-2.5-7.8-6.1-13.2   c-2.7-4-5.5-7-7.7-8.9c-2.1-1.9-5.2-4.3-9.4-6.5c-6.9-3.7-13.1-4.7-15.9-5C489.8,340.4,487.9,340.4,486.5,340.4"/>
	<path class="st0" d="M486.3,307.8c0-6.2-0.1-12.3-0.1-18.5c1.5,0,3.1,0,4.8,0.1c0.9,0,8.1,0.4,16.1,2.1c15.7,3.3,27.7,10,27.7,10   c2.6,1.5,11.9,6.8,21.4,16.7c3.1,3.2,11.8,12.7,18.7,27.5c3.5,7.4,5.2,13.6,5.9,16c2.7,9.9,3.3,18.7,3.3,25.5   c-6.1-0.1-12.1-0.2-18.2-0.2c-0.2-3.6-0.6-8.1-1.6-13.1c-1-5.5-2.5-13.1-7-21.9c-2.5-4.9-5-8.3-7-11c-1.9-2.6-4.9-6.6-9.5-11   c-2.3-2.2-7.1-6.6-14.2-10.8c-5.7-3.4-10.5-5.3-12.6-6.1c-8.3-3.1-15.2-4-19.4-4.5C491.2,308,488.4,307.9,486.3,307.8"/>
</g>
</svg>